<?xml version="1.0" encoding="UTF-8" standalone="no"?>
<!DOCTYPE svg PUBLIC "-//W3C//DTD SVG 1.1//EN"
 "http://www.w3.org/Graphics/SVG/1.1/DTD/svg11.dtd">
<!-- Generated by graphviz version 2.40.1 (20161225.0304)
 -->
<!-- Title: models_diagram Pages: 1 -->
<svg width="539pt" height="232pt"
 viewBox="0.00 0.00 538.96 232.00" xmlns="http://www.w3.org/2000/svg" xmlns:xlink="http://www.w3.org/1999/xlink">
<g id="graph0" class="graph" transform="scale(1 1) rotate(0) translate(4 228)">
<title>models_diagram</title>
<polygon fill="transparent" stroke="transparent" points="-4,4 -4,-228 534.9551,-228 534.9551,4 -4,4"/>
<!-- _diagram_info -->
<g id="node1" class="node">
<title>_diagram_info</title>
<text text-anchor="start" x="8" y="-202.6" font-family="Times,serif" font-size="13.00" fill="#000000">Models diagram</text>
<text text-anchor="start" x="8" y="-189.6" font-family="Times,serif" font-size="13.00" fill="#000000">Date: Feb 21 2017 &#45; 11:01</text>
<text text-anchor="start" x="8" y="-176.6" font-family="Times,serif" font-size="13.00" fill="#000000">Migration version: 20170221132739</text>
<text text-anchor="start" x="8" y="-163.6" font-family="Times,serif" font-size="13.00" fill="#000000">Generated by RailRoady 1.5.2</text>
<text text-anchor="start" x="8" y="-150.6" font-family="Times,serif" font-size="13.00" fill="#000000">http://railroady.prestonlee.com</text>
</g>
<!-- ApplicationRecord -->
<g id="node2" class="node">
<title>ApplicationRecord</title>
<ellipse fill="none" stroke="#000000" cx="302.4497" cy="-180.5" rx="77.2916" ry="18"/>
<text text-anchor="middle" x="302.4497" y="-176.3" font-family="Times,serif" font-size="14.00" fill="#000000">ApplicationRecord</text>
</g>
<!-- Category -->
<g id="node3" class="node">
<title>Category</title>
<path fill="none" stroke="#000000" d="M409.9443,-137.5C409.9443,-137.5 518.9551,-137.5 518.9551,-137.5 524.9551,-137.5 530.9551,-143.5 530.9551,-149.5 530.9551,-149.5 530.9551,-211.5 530.9551,-211.5 530.9551,-217.5 524.9551,-223.5 518.9551,-223.5 518.9551,-223.5 409.9443,-223.5 409.9443,-223.5 403.9443,-223.5 397.9443,-217.5 397.9443,-211.5 397.9443,-211.5 397.9443,-149.5 397.9443,-149.5 397.9443,-143.5 403.9443,-137.5 409.9443,-137.5"/>
<text text-anchor="middle" x="464.4497" y="-208.3" font-family="Times,serif" font-size="14.00" fill="#000000">Category</text>
<polyline fill="none" stroke="#000000" points="397.9443,-201.5 530.9551,-201.5 "/>
<text text-anchor="start" x="405.9443" y="-186.3" font-family="Times,serif" font-size="14.00" fill="#000000">id :INTEGER</text>
<text text-anchor="start" x="405.9443" y="-172.3" font-family="Times,serif" font-size="14.00" fill="#000000">nombre :varchar</text>
<text text-anchor="start" x="405.9443" y="-158.3" font-family="Times,serif" font-size="14.00" fill="#000000">created_at :datetime</text>
<text text-anchor="start" x="405.9443" y="-144.3" font-family="Times,serif" font-size="14.00" fill="#000000">updated_at :datetime</text>
</g>
<!-- Product -->
<g id="node4" class="node">
<title>Product</title>
<path fill="none" stroke="#000000" d="M409.9443,-.5C409.9443,-.5 518.9551,-.5 518.9551,-.5 524.9551,-.5 530.9551,-6.5 530.9551,-12.5 530.9551,-12.5 530.9551,-88.5 530.9551,-88.5 530.9551,-94.5 524.9551,-100.5 518.9551,-100.5 518.9551,-100.5 409.9443,-100.5 409.9443,-100.5 403.9443,-100.5 397.9443,-94.5 397.9443,-88.5 397.9443,-88.5 397.9443,-12.5 397.9443,-12.5 397.9443,-6.5 403.9443,-.5 409.9443,-.5"/>
<text text-anchor="middle" x="464.4497" y="-85.3" font-family="Times,serif" font-size="14.00" fill="#000000">Product</text>
<polyline fill="none" stroke="#000000" points="397.9443,-78.5 530.9551,-78.5 "/>
<text text-anchor="start" x="405.9443" y="-63.3" font-family="Times,serif" font-size="14.00" fill="#000000">id :INTEGER</text>
<text text-anchor="start" x="405.9443" y="-49.3" font-family="Times,serif" font-size="14.00" fill="#000000">nombre :varchar</text>
<text text-anchor="start" x="405.9443" y="-35.3" font-family="Times,serif" font-size="14.00" fill="#000000">created_at :datetime</text>
<text text-anchor="start" x="405.9443" y="-21.3" font-family="Times,serif" font-size="14.00" fill="#000000">updated_at :datetime</text>
<text text-anchor="start" x="405.9443" y="-7.3" font-family="Times,serif" font-size="14.00" fill="#000000">category_id :integer</text>
</g>
<!-- Category&#45;&gt;Product -->
<g id="edge1" class="edge">
<title>Category&#45;&gt;Product</title>
<path fill="none" stroke="#954618" d="M464.4497,-129.1379C464.4497,-123.1635 464.4497,-117.0282 464.4497,-110.9463"/>
<ellipse fill="none" stroke="#954618" cx="464.4498" cy="-133.2119" rx="4" ry="4"/>
<polygon fill="#954618" stroke="#954618" points="464.4498,-110.7992 468.9497,-100.7991 464.4498,-105.7992 464.4497,-100.7992 464.4497,-100.7992 464.4497,-100.7992 464.4498,-105.7992 459.9497,-100.7992 464.4498,-110.7992 464.4498,-110.7992"/>
</g>
</g>
</svg>
